<svg xmlns="http://www.w3.org/2000/svg" viewBox="0 0 240 240" role="img" data-cycle="4" data-key-time="0.05"><title>Rotations du buste assis au sol, bâton</title><style>.rotations-buste-assis-sol-baton-j{transform-box:view-box;animation:4s ease-in infinite}.rotations-buste-assis-sol-baton-epaule-g{transform-origin:120px 102px;animation-name:rotations-buste-assis-sol-baton-epaule-g}@keyframes rotations-buste-assis-sol-baton-epaule-g{0%,10%,100%{transform:rotate(0deg)}30%,80%{transform:rotate(-50deg);animation-timing-function:ease-out}50%,60%{transform:rotate(-100deg)}}.rotations-buste-assis-sol-baton-epaule-d{transform-origin:120px 102px;animation-name:rotations-buste-assis-sol-baton-epaule-d}@keyframes rotations-buste-assis-sol-baton-epaule-d{0%,10%,100%{transform:rotate(0deg)}30%,80%{transform:rotate(-50deg);animation-timing-function:ease-out}50%,60%{transform:rotate(-100deg)}}</style><g fill="none" stroke="currentColor" stroke-width="10" stroke-linecap="round" stroke-linejoin="round"><rect x="80" y="70" width="80" height="150" stroke-width="2"/><line x1="120" y1="124" x2="107" y2="124"/><line x1="107" y1="124" x2="104.5" y2="159.9"/><line x1="104.5" y1="159.9" x2="103.5" y2="187.9"/><line x1="103.5" y1="187.9" x2="103.5" y2="199.9"/><line x1="120" y1="124" x2="133" y2="124"/><line x1="133" y1="124" x2="135.5" y2="159.9"/><line x1="135.5" y1="159.9" x2="136.5" y2="187.9"/><line x1="136.5" y1="187.9" x2="136.5" y2="199.9"/><line x1="120" y1="124" x2="120" y2="102"/><g class="rotations-buste-assis-sol-baton-j rotations-buste-assis-sol-baton-epaule-g"><line x1="120" y1="102" x2="105.9" y2="85.1"/><line x1="105.9" y1="85.1" x2="79.6" y2="78.7"/><line x1="79.6" y1="78.7" x2="88.1" y2="53.1"/></g><g class="rotations-buste-assis-sol-baton-j rotations-buste-assis-sol-baton-epaule-d"><line x1="120" y1="102" x2="134.1" y2="118.9"/><line x1="76.5" y1="39.3" x2="174.2" y2="155.7" stroke-width="5"/><line x1="134.1" y1="118.9" x2="135.9" y2="145.8"/><line x1="135.9" y1="145.8" x2="162.6" y2="141.9"/></g><circle cx="120" cy="105" r="14" fill="currentColor" stroke="none"/></g></svg>